<?xml version="1.0" standalone="no"?>
<!DOCTYPE svg PUBLIC "-//W3C//DTD SVG 20010904//EN"
 "http://www.w3.org/TR/2001/REC-SVG-20010904/DTD/svg10.dtd">
<svg version="1.0" xmlns="http://www.w3.org/2000/svg"
 width="2000.000000pt" height="1306.000000pt" viewBox="100 0 2000.000000 1306.000000"
 preserveAspectRatio="xMidYMid meet">
<metadata>
Created by potrace 1.16, written by Peter Selinger 2001-2019
</metadata>
<g transform="translate(0.000000,1306.000000) scale(0.100000,-0.100000)"
fill="#000000" stroke="none">
<path d="M12025 11193 c-30 -146 -74 -241 -141 -303 -24 -22 -47 -40 -51 -40
-5 0 -9 16 -11 35 -3 45 -27 104 -45 111 -11 4 -12 15 -6 50 14 77 -19 106
-42 37 -26 -83 -122 -233 -149 -233 -5 0 -19 18 -31 40 -30 53 -54 54 -43 3
13 -64 8 -92 -21 -123 -15 -16 -31 -27 -35 -25 -4 2 -10 26 -14 52 -3 27 -16
76 -27 111 -16 49 -25 62 -41 62 -18 0 -19 -4 -14 -32 4 -18 9 -82 12 -143 l6
-110 -31 -18 c-17 -10 -36 -15 -41 -12 -6 3 -10 28 -10 54 0 95 -42 192 -113
260 -54 51 -92 25 -47 -32 45 -57 70 -129 70 -204 0 -39 -5 -84 -10 -99 -6
-14 -54 -73 -108 -129 -54 -57 -115 -133 -136 -170 -22 -36 -42 -64 -47 -63
-4 2 -66 60 -137 129 -97 92 -133 134 -139 160 -7 27 -14 34 -34 34 -19 0 -25
-6 -27 -27 -5 -40 28 -95 125 -210 129 -152 153 -189 227 -339 69 -143 147
-263 222 -339 50 -52 55 -65 20 -56 -29 7 -56 -15 -56 -47 0 -52 130 -226 192
-258 20 -10 47 -33 60 -51 20 -29 23 -45 25 -149 2 -129 20 -284 59 -500 43
-242 45 -262 39 -304 -21 -135 -87 -221 -219 -285 -82 -39 -150 -60 -286 -87
-109 -21 -655 -29 -934 -13 -178 10 -264 10 -456 0 l-237 -13 -45 26 c-92 54
-126 138 -136 337 -6 108 -10 135 -21 135 -23 0 -75 -75 -112 -162 -30 -69
-33 -88 -34 -170 0 -85 2 -94 30 -135 17 -24 62 -64 104 -92 l73 -49 -60 -53
c-130 -116 -199 -273 -277 -634 -33 -149 -57 -200 -123 -262 -101 -95 -251
-143 -488 -156 -158 -9 -166 -12 -196 -78 -10 -23 -25 -47 -34 -55 -8 -7 -28
-38 -44 -68 -15 -31 -48 -83 -72 -116 -89 -121 -304 -320 -382 -354 -70 -30
-111 -65 -142 -117 -24 -41 -29 -45 -53 -38 -105 31 -239 -55 -270 -173 -12
-46 -1 -93 22 -93 8 0 66 25 130 55 64 30 144 62 179 71 35 9 71 20 80 25 15
8 16 6 6 -21 -14 -42 -41 -57 -124 -68 -111 -15 -151 -43 -198 -138 -33 -67
-33 -99 -1 -120 25 -17 29 -15 158 49 73 37 143 76 157 87 14 11 59 34 100 51
41 16 89 41 107 55 18 13 101 109 185 212 84 103 216 251 293 329 171 173 192
185 461 247 284 66 344 83 514 138 252 82 415 162 502 245 l36 35 144 -31
c530 -114 979 -139 1378 -76 52 8 124 18 160 21 l65 6 70 -52 c115 -86 136
-93 255 -98 86 -3 162 4 428 43 178 25 340 45 359 43 85 -7 42 -41 -179 -144
-200 -92 -224 -101 -313 -113 -91 -13 -162 -43 -223 -94 -53 -45 -85 -47 -160
-12 -30 14 -61 25 -70 24 -10 0 -51 -17 -92 -37 -70 -35 -75 -39 -78 -72 -2
-19 -13 -45 -24 -57 -14 -15 -22 -37 -22 -65 l-1 -43 295 0 c328 0 369 6 448
60 26 17 67 41 92 52 25 11 72 42 105 70 33 27 98 73 145 102 47 28 119 75
162 104 42 29 111 74 153 100 93 59 125 101 159 211 l26 85 -27 82 c-19 57
-34 84 -48 89 -17 7 -308 35 -573 56 -80 6 -83 7 -77 28 24 77 27 113 16 176
-10 56 -9 74 6 130 15 56 18 104 17 335 -2 431 -49 722 -174 1064 -17 45 -30
97 -30 116 0 34 21 65 44 65 6 0 45 21 86 46 59 36 98 52 180 71 177 41 188
45 209 64 12 11 21 29 21 41 0 12 7 30 17 40 14 15 14 24 5 57 -24 78 -69 114
-162 126 -30 4 -64 13 -75 20 -11 7 -72 16 -139 19 -120 7 -159 18 -207 56
-19 16 -48 23 -120 30 -90 8 -95 10 -121 42 -68 83 -64 80 -104 63 l-36 -15
-38 38 -39 38 5 115 c6 123 -1 149 -44 177 l-24 15 7 -69 c7 -68 -7 -154 -24
-154 -12 0 -47 85 -68 162 -12 42 -18 101 -18 178 0 107 2 119 29 174 40 81
127 166 274 265 139 94 227 183 290 294 75 132 98 297 41 297 -12 0 -21 -9
-24 -27z m-265 -280 c-1 -64 -27 -119 -83 -171 -48 -43 -192 -142 -208 -142
-27 0 4 41 109 147 67 68 128 138 142 166 14 26 28 47 32 47 5 0 8 -21 8 -47z
m-421 -420 c-61 -176 -78 -353 -46 -488 7 -33 12 -77 9 -97 -2 -21 3 -56 13
-81 9 -24 15 -63 13 -86 l-3 -43 -52 43 c-71 57 -159 169 -197 249 -27 57 -31
76 -31 150 0 137 41 201 225 349 41 33 78 60 82 61 4 0 -2 -26 -13 -57z
m-3476 -4394 c-23 -39 -152 -179 -202 -219 -22 -16 -56 -37 -76 -46 l-37 -15
20 28 c11 15 40 47 64 70 47 45 241 213 246 213 2 0 -5 -14 -15 -31z"/>
<path d="M2985 5153 c-129 -11 -341 -63 -379 -92 -6 -4 -27 -14 -46 -22 -110
-43 -312 -216 -394 -337 -57 -85 -108 -195 -142 -308 -22 -75 -27 -114 -32
-246 -6 -218 18 -343 100 -517 114 -242 332 -432 598 -524 116 -40 180 -49
373 -54 156 -4 191 -2 275 17 53 12 120 30 149 40 93 34 229 106 292 154 l61
47 0 400 0 399 -110 0 -110 0 0 -349 0 -348 -38 -26 c-78 -51 -216 -102 -320
-117 -98 -14 -264 -12 -362 4 -334 57 -606 326 -671 663 -7 39 -10 116 -7 205
5 125 9 154 35 230 43 126 104 224 192 313 112 114 221 177 389 227 67 20 99
23 252 23 153 0 185 -3 255 -23 110 -32 207 -81 289 -147 38 -30 72 -55 76
-55 3 0 37 31 75 70 l69 70 -39 39 c-42 44 -178 137 -240 165 -175 80 -395
116 -590 99z"/>
<path d="M4440 4105 l0 -1035 115 0 115 0 0 1035 0 1035 -115 0 -115 0 0
-1035z"/>
<path d="M5949 5128 c-9 -7 -40 -67 -69 -133 -29 -66 -59 -131 -66 -145 -7
-14 -26 -54 -43 -90 -120 -266 -187 -413 -217 -478 -20 -42 -67 -144 -104
-227 -37 -83 -85 -186 -105 -230 -57 -124 -79 -171 -135 -295 -69 -152 -104
-228 -152 -330 -22 -47 -41 -96 -41 -110 -2 -25 -2 -25 95 -28 54 -1 106 2
116 7 12 6 67 117 138 276 l118 265 571 0 571 0 29 -62 c15 -35 39 -88 52
-118 13 -30 33 -74 44 -97 10 -24 27 -62 38 -85 60 -135 81 -176 96 -182 24
-9 198 -7 213 2 12 8 -16 80 -121 302 -19 41 -67 147 -107 235 -40 88 -90 198
-112 245 -22 47 -82 177 -133 290 -51 113 -108 239 -128 280 -31 67 -144 315
-223 489 -16 35 -47 100 -69 145 l-40 81 -100 3 c-70 2 -105 -1 -116 -10z
m281 -633 c83 -187 160 -359 171 -382 10 -24 28 -64 40 -90 11 -27 27 -61 34
-78 8 -16 25 -56 39 -87 l25 -58 -484 0 -484 0 50 113 c386 865 433 967 445
944 7 -12 80 -175 164 -362z"/>
<path d="M7453 5133 c-10 -4 -13 -220 -13 -1033 0 -928 2 -1028 16 -1034 30
-11 190 -6 207 7 16 11 17 69 15 825 l-3 814 38 -44 c21 -23 62 -75 91 -113
30 -39 87 -112 127 -162 41 -51 119 -149 174 -218 55 -70 147 -186 205 -259
58 -72 155 -195 215 -271 61 -77 164 -207 230 -290 66 -83 140 -176 164 -208
25 -32 54 -65 65 -73 26 -18 166 -20 184 -2 9 9 12 253 12 1035 l0 1023 -22 5
c-13 3 -63 5 -113 3 l-90 -3 -5 -820 c-3 -451 -8 -820 -11 -820 -6 0 -43 46
-233 288 -27 34 -144 181 -260 327 -117 146 -338 425 -493 620 -154 195 -292
367 -306 383 -24 25 -31 27 -104 26 -43 0 -84 -3 -90 -6z"/>
<path d="M9843 5133 c-10 -4 -13 -220 -13 -1033 0 -928 2 -1028 16 -1034 23
-9 197 -7 211 2 10 6 13 187 15 824 l3 816 100 -126 c55 -70 143 -181 195
-247 300 -378 542 -683 744 -940 126 -159 240 -300 253 -312 20 -20 35 -23 98
-23 40 0 80 3 89 6 14 6 16 106 16 1035 l0 1029 -22 5 c-13 3 -63 5 -113 3
l-90 -3 -5 -825 -5 -825 -100 125 c-55 69 -183 231 -285 359 -102 129 -303
383 -448 565 -145 182 -300 378 -345 435 -148 187 -127 171 -221 170 -44 0
-87 -3 -93 -6z"/>
<path d="M12233 5133 c-10 -4 -13 -220 -13 -1033 l0 -1028 23 -6 c12 -3 338
-6 724 -6 625 0 703 2 717 16 18 18 22 126 6 168 l-10 26 -610 0 -610 0 0 375
0 375 530 0 530 0 0 100 0 100 -530 0 -530 0 0 358 0 357 572 -3 c315 -1 583
0 596 3 22 5 23 9 20 103 l-3 97 -700 2 c-385 1 -706 -1 -712 -4z"/>
<path d="M13877 5133 c-4 -3 -7 -48 -7 -99 0 -75 3 -93 16 -98 9 -3 171 -6
360 -6 l344 0 0 -929 c0 -838 2 -929 16 -935 20 -8 178 -8 198 0 14 6 16 97
16 938 l0 931 342 -3 c189 -1 353 0 366 3 21 5 22 10 22 99 0 76 -3 95 -16
100 -21 8 -1649 8 -1657 -1z"/>
<path d="M15597 5133 c-4 -3 -7 -48 -7 -99 0 -75 3 -93 16 -98 9 -3 171 -6
360 -6 l344 0 0 -929 c0 -838 2 -929 16 -935 20 -8 178 -8 198 0 14 6 16 97
16 938 l0 931 351 -3 c253 -2 355 1 365 9 21 18 20 185 -2 193 -21 8 -1649 8
-1657 -1z"/>
<path d="M17600 4105 l0 -1035 115 0 115 0 0 1035 0 1035 -115 0 -115 0 0
-1035z"/>
</g>
</svg>
